<svg width="48" height="48" viewBox="96 0 48 48" fill="none" xmlns="http://www.w3.org/2000/svg">
<circle cx="120" cy="24" r="23.5" stroke="black"/>
<path d="M133.125 32.9531H129.187C128.719 32.9531 128.25 32.6719 127.969 32.2969L127.594 31.6875C127.359 31.4063 125.203 28.9219 123.891 28.125C123.375 27.8438 123.187 27.8906 123.187 27.8906C123.187 27.8906 123.141 28.0313 123.141 28.0781V30.5625C123.141 31.875 122.062 32.9062 120.797 32.9062H119.859C119.625 32.9062 114.375 32.8125 110.203 26.5781C106.922 21.7031 105.844 18.5156 105.469 16.6875C105.375 16.2656 105.516 15.8437 105.75 15.5156C106.031 15.1875 106.406 15 106.828 15H110.156C110.766 15 111.281 15.375 111.469 15.9844C111.844 17.0625 112.781 19.8281 113.906 21.6094C115.547 24.3281 116.203 24.5625 116.391 24.5625C116.531 24.3281 116.484 23.3906 116.484 22.7813C116.484 22.5 116.484 22.2656 116.484 21.9844C116.484 21.7969 116.484 21.5625 116.484 21.3281C116.484 20.1562 116.531 18.5625 116.062 17.8125L115.125 16.4531C114.937 16.1719 114.891 15.7969 115.078 15.4688C115.219 15.1406 115.547 14.9531 115.922 14.9531H121.266C122.062 14.9531 122.672 15.6094 122.672 16.3594V23.1094C122.672 23.1563 122.719 23.2031 122.719 23.2031C122.719 23.2031 122.906 23.2031 123.422 22.7344C124.5 21.6562 125.859 19.6406 127.219 16.875L127.687 15.7969C127.922 15.2813 128.437 14.9531 129 14.9531H132.469C132.937 14.9531 133.359 15.1875 133.641 15.5625C133.922 15.9375 133.969 16.4531 133.781 16.875L133.406 17.8594V17.9063C133.359 18 132.094 20.4844 130.781 22.3125C129.75 23.7188 129.328 24.375 129.422 24.6094C129.516 24.75 130.125 25.4531 130.734 26.0156C131.859 27.1875 133.266 28.6875 133.781 29.6719C134.016 30.0938 134.25 30.4688 134.391 30.7969C134.625 31.2188 134.625 31.7344 134.344 32.2031C134.062 32.7188 133.641 32.9531 133.125 32.9531ZM123.281 26.9531C123.609 26.9531 123.984 27.0938 124.406 27.3281C125.953 28.2188 128.297 30.9844 128.391 31.125L128.437 31.1719L128.812 31.7812C128.906 31.9219 129.047 32.0156 129.234 32.0156H133.125C133.359 32.0156 133.5 31.875 133.547 31.7812C133.594 31.7344 133.687 31.5469 133.547 31.3125C133.359 30.9844 133.172 30.6094 132.937 30.1875C132.469 29.3438 131.062 27.8438 130.031 26.7188C129 25.5938 128.625 25.2188 128.531 24.9844C128.25 24.2812 128.672 23.7188 130.031 21.8438C131.25 20.1563 132.422 17.8594 132.562 17.5781L132.937 16.5938C132.984 16.4531 132.984 16.2656 132.891 16.1719C132.797 16.0313 132.656 15.9844 132.516 15.9844H129.047C128.859 15.9844 128.672 16.0781 128.625 16.2656L128.156 17.3906C127.125 19.4063 125.625 22.0781 124.172 23.5312C123.562 24.1406 123 24.3281 122.531 24.1875C121.969 24 121.828 23.3906 121.828 23.3438C121.828 23.2969 121.828 23.2969 121.828 23.25V16.4531C121.828 16.1719 121.594 15.9844 121.359 15.9844H115.922L116.859 17.3438C117.469 18.3281 117.469 20.0625 117.422 21.4219C117.422 21.6563 117.422 21.8438 117.422 22.0312C117.422 22.2656 117.422 22.5469 117.422 22.7813C117.469 24.0938 117.469 25.3125 116.625 25.5C115.687 25.6875 114.703 24.7031 113.109 22.125C112.031 20.2969 111.094 17.7188 110.625 16.3125C110.578 16.125 110.391 15.9844 110.156 15.9844H106.875C106.734 15.9844 106.594 16.0313 106.5 16.1719C106.406 16.2656 106.406 16.4063 106.406 16.5469C106.734 18.2813 107.812 21.3281 111 26.1094C114.891 31.9219 119.812 32.0156 119.859 32.0156H120.797C121.594 32.0156 122.203 31.3594 122.203 30.6094V28.125C122.203 28.0781 122.203 27.4219 122.719 27.0938C122.906 27 123.094 26.9531 123.281 26.9531Z" fill="black"/>
</svg>
